<svg width="40" height="35" viewBox="0 0 40 35" fill="none" xmlns="http://www.w3.org/2000/svg">
<path d="M32.2802 0C31.0074 0 9.12507 0 7.72203 0L0 9.96104L20.0829 35L40 9.95817L32.2802 0ZM10.979 11.0554L16.6371 27.0459L3.81162 11.0554H10.979ZM13.4439 11.0554H26.5652L20.0496 29.724L13.4439 11.0554ZM29.0268 11.0554H36.2023L23.4158 27.1319L29.0268 11.0554ZM31.0956 2.21108L36.2378 8.8443H29.0283L26.7275 2.21108H31.0956ZM24.2675 2.21108L26.5683 8.8443H13.4338L15.7346 2.21108H24.2675ZM8.90645 2.21108H13.2745L10.9737 8.8443H3.76425L8.90645 2.21108Z" fill="white"/>
</svg>
