<svg width="36" height="36" viewBox="0 0 36 36" fill="none" xmlns="http://www.w3.org/2000/svg">
<path fill-rule="evenodd" clip-rule="evenodd" d="M3.46315 0.268555H31.9995C33.9091 0.268555 35.4627 1.8221 35.4627 3.73171V24.9262C35.4627 26.8358 33.9091 28.3894 31.9995 28.3894H21.1945V31.5755H21.8871C22.8119 31.5755 23.6812 31.9358 24.3357 32.5901C24.9899 33.2445 25.3503 34.1138 25.3503 35.0386C25.3503 35.4212 25.0402 35.7312 24.6576 35.7312H10.805C10.4225 35.7312 10.1124 35.4212 10.1124 35.0386C10.1124 33.129 11.666 31.5755 13.5756 31.5755H14.2682V28.3894H3.46315C1.55355 28.3894 0 26.8358 0 24.9262V3.73171C0 1.8221 1.55355 0.268555 3.46315 0.268555ZM31.9995 1.65382H3.46315C2.31734 1.65382 1.38526 2.58589 1.38526 3.73171V21.4631H4.57136V5.53255C4.57136 5.14998 4.88142 4.83992 5.26399 4.83992H10.805C11.1876 4.83992 11.4977 5.14998 11.4977 5.53255V21.4631H14.9646C14.9719 20.7466 14.9906 20.0405 15.0203 19.3554C15.1416 16.5346 15.4178 14.645 15.5615 13.8138C14.1324 12.7616 13.7422 10.8114 14.6159 9.29629L17.0165 5.13834C17.1404 4.92406 17.3691 4.79203 17.6164 4.79203C17.8639 4.79203 18.0925 4.92406 18.2162 5.13834L20.6179 9.29656C21.4415 10.7251 21.1496 12.5755 19.8558 13.6674C20.0057 14.4962 20.3081 16.4534 20.4396 19.354C20.4707 20.0464 20.4905 20.7531 20.4981 21.4631H23.965V11.0736C23.965 10.9637 23.991 10.8636 24.0335 10.7746C24.0346 10.7726 24.0354 10.7704 24.0362 10.7683L24.0381 10.7638L26.8086 5.22276C26.926 4.98818 27.1657 4.83992 27.4282 4.83992C27.6906 4.83992 27.9303 4.98818 28.0477 5.22276L30.8183 10.7638C30.8191 10.7656 30.8198 10.7674 30.8204 10.7692C30.8211 10.771 30.8218 10.7729 30.8226 10.7746C30.8659 10.8645 30.8913 10.9662 30.8913 11.0736V21.4631H34.0774V3.73171C34.0774 2.58589 33.1453 1.65382 31.9995 1.65382ZM10.1124 21.4631V6.22518H5.95662V7.61044H6.64925C7.03182 7.61044 7.34188 7.9205 7.34188 8.30307C7.34188 8.68564 7.03182 8.9957 6.64925 8.9957H5.95662V11.0736H6.64925C7.03182 11.0736 7.34188 11.3837 7.34188 11.7662C7.34188 12.1488 7.03182 12.4589 6.64925 12.4589H5.95662V14.5367H6.64925C7.03182 14.5367 7.34188 14.8468 7.34188 15.2294C7.34188 15.6119 7.03182 15.922 6.64925 15.922H5.95662V18.6925H6.64925C7.03182 18.6925 7.34188 19.0026 7.34188 19.3852C7.34188 19.7677 7.03182 20.0778 6.64925 20.0778H5.95662V21.4631H10.1124ZM17.6164 14.4889C17.3647 14.4889 17.1142 14.4599 16.8691 14.4058C16.7406 15.2296 16.5517 16.6874 16.44 18.6925H19.0181C18.901 16.6888 18.7032 15.2083 18.5666 14.3566C18.2597 14.4439 17.9402 14.4889 17.6164 14.4889ZM17.6164 13.1036C19.1994 13.1036 20.2202 11.3807 19.418 9.98892L17.6164 6.86992L15.8158 9.98865C15.0166 11.3747 16.0233 13.1036 17.6164 13.1036ZM19.0817 20.0778H16.3791C16.3645 20.5329 16.3545 20.9958 16.3496 21.4631H19.1128C19.1077 20.9988 19.0971 20.5358 19.0817 20.0778ZM26.7355 21.4631V11.7662H25.3503V21.4631H26.7355ZM29.5061 21.4631V11.7662H28.1208V21.4631H29.5061ZM29.078 10.381L27.4282 7.08123L25.7783 10.381H29.078ZM11.6164 34.346H23.847C23.7453 34.0573 23.5792 33.7927 23.3563 33.5695C22.9634 33.1769 22.4418 32.9607 21.8871 32.9607H13.5756C12.6724 32.9607 11.9021 33.5397 11.6164 34.346ZM15.6534 31.5755H19.8092V28.3894H15.6534V31.5755ZM3.46315 27.0041H31.9995C33.1453 27.0041 34.0774 26.072 34.0774 24.9262V22.8483H1.38526V24.9262C1.38526 26.072 2.31734 27.0041 3.46315 27.0041ZM13.5756 24.2336C13.9579 24.2336 14.2682 24.5439 14.2682 24.9262C14.2682 25.3085 13.9579 25.6188 13.5756 25.6188C13.1933 25.6188 12.8829 25.3085 12.8829 24.9262C12.8829 24.5439 13.1933 24.2336 13.5756 24.2336ZM20.5019 24.2336H16.3461C15.9635 24.2336 15.6534 24.5436 15.6534 24.9262C15.6534 25.3088 15.9635 25.6188 16.3461 25.6188H20.5019C20.8844 25.6188 21.1945 25.3088 21.1945 24.9262C21.1945 24.5436 20.8844 24.2336 20.5019 24.2336Z" fill="white"/>
</svg>
