<svg width="36" height="41" viewBox="0 0 36 41" fill="none" xmlns="http://www.w3.org/2000/svg">
<path fill-rule="evenodd" clip-rule="evenodd" d="M21.9047 1.62773C21.9047 0.979037 22.4306 0.453125 23.0793 0.453125C23.728 0.453125 24.2539 0.979037 24.2539 1.62773V4.05526C24.2539 4.70396 23.728 5.22987 23.0793 5.22987C22.4306 5.22987 21.9047 4.70396 21.9047 4.05526V1.62773ZM35.1003 25.2765C35.6594 24.6524 36 23.8286 36 22.9273C36 20.9845 34.419 19.4035 32.4762 19.4035H25.6368C26.3142 17.3479 26.6031 14.6205 26.6031 13.4514V12.2775C26.6031 9.68712 24.4951 7.57909 21.9047 7.57909H20.7301C20.1913 7.57909 19.7215 7.94557 19.5907 8.46866L18.9509 11.0285C18.0543 14.6134 15.2078 18.5687 12.2619 19.2876C11.7459 17.9814 10.4718 17.0543 8.98398 17.0543H1.93633C1.28794 17.0543 0.761719 17.5805 0.761719 18.2289V39.3718C0.761719 40.0202 1.28794 40.5465 1.93633 40.5465H8.98398C10.3849 40.5465 11.5971 39.725 12.1648 38.5379L16.2008 39.8832C17.5203 40.3233 18.8953 40.5465 20.2869 40.5465H30.127C32.0698 40.5465 33.6508 38.9654 33.6508 37.0226C33.6508 36.5645 33.5631 36.126 33.4033 35.7243C34.8974 35.3163 36 33.9467 36 32.3242C36 31.4229 35.6594 30.5991 35.1003 29.975C35.6594 29.3509 36 28.5271 36 27.6258C36 26.7244 35.6594 25.9006 35.1003 25.2765ZM10.1586 37.0226C10.1586 37.6702 9.63159 38.1972 8.98398 38.1972H3.11094V19.4035H8.98398C9.63159 19.4035 10.1586 19.9305 10.1586 20.5781V37.0226ZM30.127 26.4511H32.4762C33.1238 26.4511 33.6508 26.9782 33.6508 27.6258C33.6508 28.2734 33.1238 28.8004 32.4762 28.8004H30.127C29.4786 28.8004 28.9523 29.3266 28.9523 29.975C28.9523 30.6234 29.4786 31.1496 30.127 31.1496H32.4762C33.1238 31.1496 33.6508 31.6766 33.6508 32.3242C33.6508 32.9718 33.1238 33.4988 32.4762 33.4988H30.127C29.4786 33.4988 28.9523 34.025 28.9523 34.6734C28.9523 35.3218 29.4786 35.848 30.127 35.848C30.7746 35.848 31.3016 36.375 31.3016 37.0226C31.3016 37.6702 30.7746 38.1972 30.127 38.1972H20.2869C19.1483 38.1972 18.023 38.0148 16.9431 37.6546L12.5078 36.1761V21.6415C14.3504 21.2915 16.1538 20.1247 17.7818 18.2148C19.3714 16.3495 20.6604 13.8766 21.2297 11.5986L21.6471 9.92831H21.9047C23.1999 9.92831 24.2539 10.9823 24.2539 12.2775V13.4514C24.2539 15.0285 23.7606 18.0535 23.1294 19.4035H20.7301C20.0817 19.4035 19.5555 19.9297 19.5555 20.5781C19.5555 21.2265 20.0817 21.7527 20.7301 21.7527H32.4762C33.1238 21.7527 33.6508 22.2797 33.6508 22.9273C33.6508 23.5749 33.1238 24.1019 32.4762 24.1019H30.127C29.4786 24.1019 28.9523 24.6282 28.9523 25.2765C28.9523 25.9249 29.4786 26.4511 30.127 26.4511ZM6.63477 35.848C7.28348 35.848 7.80937 35.3221 7.80937 34.6734C7.80937 34.0247 7.28348 33.4988 6.63477 33.4988C5.98605 33.4988 5.46016 34.0247 5.46016 34.6734C5.46016 35.3221 5.98605 35.848 6.63477 35.848ZM18.0958 5.633L16.4347 3.97187C15.976 3.51315 15.2323 3.51315 14.7735 3.97187C14.3148 4.4306 14.3148 5.17428 14.7735 5.633L16.4347 7.29414C16.8933 7.75278 17.6372 7.75286 18.0958 7.29414C18.5545 6.83541 18.5545 6.09173 18.0958 5.633ZM29.7239 3.97187C30.1826 3.51315 30.9263 3.51315 31.385 3.97187C31.8437 4.4306 31.8437 5.17428 31.385 5.63301L29.7239 7.29414C29.2651 7.75286 28.5214 7.75279 28.0627 7.29406C27.604 6.83534 27.604 6.09165 28.0627 5.63293L29.7239 3.97187Z" fill="white"/>
</svg>
