<svg width="44" height="44" viewBox="0 0 44 44" fill="none" xmlns="http://www.w3.org/2000/svg">
<path d="M6.44715 6.44714C15.0425 -2.14836 28.9561 -2.14973 37.5528 6.44714C46.1484 15.0426 46.1497 28.9561 37.5528 37.5529C28.9575 46.1484 15.0439 46.1497 6.44715 37.5529C-2.14845 28.9574 -2.14965 15.0439 6.44715 6.44714ZM7.36644 34.4175C8.39411 33.4986 9.49338 32.6853 10.6521 31.9845C9.88623 29.339 9.4325 26.4278 9.32526 23.4017H2.85866C3.15104 27.4806 4.71829 31.307 7.36644 34.4175ZM41.1414 23.4017H34.6748C34.5676 26.4278 34.1138 29.339 33.348 31.9845C34.5067 32.6853 35.6059 33.4986 36.6336 34.4175C39.2818 31.307 40.8489 27.4806 41.1414 23.4017ZM36.6335 9.58251C35.6059 10.5015 34.5066 11.3147 33.3479 12.0156C34.1137 14.6611 34.5675 17.5722 34.6747 20.5984H41.1414C40.8489 16.5195 39.2818 12.6931 36.6335 9.58251ZM23.4016 12.3053C25.6876 12.1418 27.8917 11.5788 29.9351 10.6499C28.7467 7.5897 26.5559 3.91929 23.4016 3.0097V12.3053ZM23.4016 15.1138V20.5984H31.8703C31.7733 18.0386 31.4105 15.5804 30.8073 13.3313C28.4852 14.3464 25.9878 14.9527 23.4016 15.1138ZM23.4016 23.4017V28.8863C25.9878 29.0475 28.4852 29.6537 30.8073 30.6688C31.4105 28.4197 31.7733 25.9616 31.8703 23.4017H23.4016ZM23.4016 31.6948V40.9903C26.5557 40.0807 28.7465 36.4108 29.9351 33.3502C27.8917 32.4214 25.6876 31.8583 23.4016 31.6948ZM20.5984 31.6948C18.3124 31.8583 16.1083 32.4214 14.0649 33.3502C15.2534 36.4105 17.4441 40.0807 20.5984 40.9903V31.6948ZM20.5984 28.8863V23.4017H12.1297C12.2267 25.9616 12.5894 28.4197 13.1926 30.6688C15.5148 29.6537 18.0121 29.0475 20.5984 28.8863ZM20.5984 20.5984V15.1138C18.0121 14.9527 15.5148 14.3464 13.1926 13.3313C12.5894 15.5804 12.2267 18.0386 12.1297 20.5984H20.5984ZM20.5984 12.3053V3.00978C17.4441 3.91938 15.2533 7.58978 14.0649 10.65C16.1083 11.5788 18.3124 12.1418 20.5984 12.3053ZM14.3026 4.40916C12.5084 5.19485 10.8345 6.26021 9.33393 7.58205C10.0482 8.21181 10.8018 8.78282 11.5888 9.29348C12.2877 7.56308 13.1804 5.88145 14.3026 4.40916ZM32.4112 9.29348C33.1982 8.78282 33.9518 8.21181 34.6661 7.58205C33.1656 6.26021 31.4917 5.19485 29.6975 4.40916C30.8196 5.88162 31.7124 7.56325 32.4112 9.29348ZM32.4112 34.7066C31.7124 36.437 30.8194 38.1187 29.6974 39.591C31.4916 38.8053 33.1655 37.7399 34.666 36.4181C33.9518 35.7883 33.1981 35.2173 32.4112 34.7066ZM11.5888 34.7066C10.8018 35.2173 10.0482 35.7883 9.33393 36.418C10.8345 37.7398 12.5084 38.8052 14.3026 39.5909C13.1805 38.1188 12.2877 36.437 11.5888 34.7066ZM9.32517 20.5984C9.43242 17.5723 9.88614 14.6611 10.652 12.0156C9.4933 11.3148 8.3941 10.5015 7.36636 9.58259C4.7182 12.6931 3.15104 16.5195 2.85857 20.5984H9.32517Z" fill="white"/>
</svg>
