<svg width="39" height="22" viewBox="0 0 39 22" fill="none" xmlns="http://www.w3.org/2000/svg">
<path fill-rule="evenodd" clip-rule="evenodd" d="M4.18058 0H21.6136C23.9129 0 25.7942 1.80261 25.7942 4.09684V17.9032C25.7942 20.1564 23.9129 22 21.6136 22H4.18058C1.88126 22 0 20.1564 0 17.9032V4.09684C0 1.84358 1.88126 0 4.18058 0ZM34.4062 2.54001C34.6152 2.41711 34.8661 2.2942 35.1169 2.25323C36.7473 1.88452 38.2105 3.11357 38.2105 4.6294V17.2886C38.2105 17.7393 38.0851 18.1489 37.8761 18.5177C37.1654 19.7057 35.6604 20.1154 34.448 19.419L27.8845 15.7318V6.22716L34.4062 2.54001Z" fill="white"/>
</svg>
